<svg width="32" height="32" viewBox="0 0 32 32" fill="none" xmlns="http://www.w3.org/2000/svg">
<path d="M15.9998 19.6026L6.28542 29.317L2.68262 25.7142L12.397 15.9998L2.68262 6.28542L6.28542 2.68262L15.9998 12.397L25.7142 2.68262L29.317 6.28542L19.6026 15.9998L29.317 25.7142L25.7142 29.317L15.9998 19.6026Z" fill="#F78F8F"/>
<path d="M6.2855 2.9655L15.7167 12.3967L15.9999 12.6799L16.2827 12.3971L25.7143 2.9655L29.0343 6.2855L19.6027 15.7171L19.3199 15.9999L19.6027 16.2827L29.0339 25.7143L25.7139 29.0343L16.2827 19.6027L15.9999 19.3199L15.7171 19.6027L6.2855 29.0343L2.9655 25.7143L12.3971 16.2827L12.6799 15.9999L12.3971 15.7171L2.9655 6.2855L6.2855 2.9655ZM25.7143 2.3999L15.9999 12.1143L6.2855 2.3999L2.3999 6.2855L12.1143 15.9999L2.3999 25.7143L6.2855 29.5999L15.9999 19.8855L25.7143 29.5999L29.5999 25.7143L19.8855 15.9999L29.5999 6.2855L25.7143 2.3999Z" fill="#C74343"/>
</svg>
