<svg width="127" height="127" viewBox="0 0 127 127" fill="none" xmlns="http://www.w3.org/2000/svg">
<path d="M96.1894 29.4154C87.4576 20.6838 75.8485 15.875 63.5 15.875C51.1515 15.875 39.5424 20.6838 30.8106 29.4154C22.0789 38.1469 17.2703 49.7563 17.2703 62.1047V79.0339C17.2703 82.433 19.714 85.2702 22.9365 85.8852C23.5614 90.6723 27.6635 94.3818 32.6182 94.3818C38.0035 94.3818 42.385 90.0003 42.385 84.615V62.2908C42.385 56.9054 38.0035 52.5239 32.6182 52.5239C30.2269 52.5239 28.0348 53.3892 26.335 54.8213C27.4174 49.2222 29.7549 43.9667 33.2552 39.3311C33.4259 39.3433 33.5976 39.3517 33.7707 39.3517C35.6342 39.3517 37.3861 38.626 38.7037 37.3083C45.3268 30.6847 54.1331 27.0371 63.5 27.0371C72.8669 27.0371 81.6732 30.6847 88.2964 37.3081C89.6141 38.626 91.366 39.3517 93.2295 39.3517C93.4025 39.3517 93.5741 39.3433 93.745 39.3311C97.2453 43.9669 99.583 49.2227 100.665 54.8222C98.9654 53.3899 96.7733 52.5239 94.3818 52.5239C88.9965 52.5239 84.615 56.9054 84.615 62.2908V84.615C84.615 90.0003 88.9965 94.3818 94.3818 94.3818C97.1128 94.3818 99.5839 93.2535 101.358 91.4404V92.9866C101.358 96.8334 98.2287 99.9629 94.3818 99.9629H74.6582C73.3842 98.2696 71.3585 97.1724 69.0811 97.1724H57.9189C54.0721 97.1724 50.9426 100.302 50.9426 104.149C50.9426 107.996 54.0721 111.125 57.9189 111.125H69.0811C71.3585 111.125 73.3842 110.028 74.6582 108.334H94.3818C102.845 108.334 109.73 101.449 109.73 92.9866V62.1047C109.73 49.7563 104.921 38.1471 96.1894 29.4154ZM32.6182 55.3145C36.465 55.3145 39.5945 58.4439 39.5945 62.2908V84.615C39.5945 88.4618 36.465 91.5913 32.6182 91.5913C28.7713 91.5913 25.6418 88.4618 25.6418 84.615V76.1504C25.6418 75.3797 25.0173 74.7551 24.2466 74.7551C23.4758 74.7551 22.8513 75.3797 22.8513 76.1504V82.9797C21.2274 82.4038 20.0608 80.8528 20.0608 79.0339V67.8718C20.0608 66.053 21.2274 64.502 22.8513 63.926V70.5693C22.8513 71.3401 23.4758 71.9646 24.2466 71.9646C25.0173 71.9646 25.6418 71.3401 25.6418 70.5693V62.2908C25.6418 58.4439 28.7713 55.3145 32.6182 55.3145ZM22.8666 61.0332C21.8302 61.2419 20.8764 61.681 20.0608 62.2947V62.1047C20.0608 52.6411 23.1049 43.8761 28.2623 36.7333L28.8374 37.3081C29.3105 37.7814 29.8405 38.1769 30.4107 38.4911C25.666 45.113 23.0746 52.8493 22.8666 61.0332ZM90.2697 35.335C83.1193 28.1846 73.6121 24.2466 63.5 24.2466C53.3879 24.2466 43.8807 28.1846 36.7303 35.335C35.9396 36.1257 34.8887 36.5612 33.7707 36.5612C32.6524 36.5612 31.6013 36.1257 30.8108 35.3348L29.9806 34.5046C37.954 24.8378 50.0197 18.6655 63.5 18.6655C76.9803 18.6655 89.046 24.8378 97.0196 34.5046L96.1892 35.335C95.3987 36.1257 94.3476 36.5612 93.2293 36.5612C92.1115 36.5612 91.0604 36.1257 90.2697 35.335ZM98.1626 37.3083L98.7377 36.7333C103.895 43.8763 106.939 52.6411 106.939 62.1047V62.296C106.123 61.6821 105.17 61.2427 104.133 61.0337C103.925 52.8497 101.334 45.1132 96.5893 38.4911C97.1597 38.1769 97.6895 37.7814 98.1626 37.3083ZM104.149 63.926C105.773 64.502 106.939 66.053 106.939 67.8718V79.0339C106.939 80.8528 105.773 82.4038 104.149 82.9797V63.926ZM94.3818 91.5913C90.535 91.5913 87.4055 88.4618 87.4055 84.615V62.2908C87.4055 58.4439 90.535 55.3145 94.3818 55.3145C98.2287 55.3145 101.358 58.4439 101.358 62.2908V84.615C101.358 88.4618 98.2287 91.5913 94.3818 91.5913ZM69.0811 108.334H57.9189C55.611 108.334 53.7332 106.457 53.7332 104.149C53.7332 101.841 55.611 99.9629 57.9189 99.9629H69.0811C71.389 99.9629 73.2668 101.841 73.2668 104.149C73.2668 106.457 71.389 108.334 69.0811 108.334ZM94.3818 105.544H75.9169C76.0088 105.093 76.0574 104.626 76.0574 104.149C76.0574 103.671 76.0088 103.204 75.9169 102.753H94.3818C99.7672 102.753 104.149 98.3719 104.149 92.9866V85.8687C105.179 85.6587 106.128 85.2205 106.939 84.6098V92.9866C106.939 99.9108 101.306 105.544 94.3818 105.544Z" fill="#0043FA" fill-opacity="0.74"/>
</svg>
