<svg width="109" height="109" viewBox="0 0 109 109" fill="none" xmlns="http://www.w3.org/2000/svg">
<path fill-rule="evenodd" clip-rule="evenodd" d="M54.5 109C84.5995 109 109 84.5995 109 54.5C109 24.4005 84.5995 0 54.5 0C24.4005 0 0 24.4005 0 54.5C0 84.5995 24.4005 109 54.5 109ZM54.1972 100.522C79.7818 100.522 100.522 79.7818 100.522 54.1972C100.522 28.6126 79.7818 7.87222 54.1972 7.87222C28.6126 7.87222 7.87222 28.6126 7.87222 54.1972C7.87222 79.7818 28.6126 100.522 54.1972 100.522Z" fill="white"/>
<path d="M107 54.5C107 83.4949 83.4949 107 54.5 107C25.5051 107 2 83.4949 2 54.5C2 25.5051 25.5051 2 54.5 2C83.4949 2 107 25.5051 107 54.5ZM54.1972 102.522C80.8864 102.522 102.522 80.8864 102.522 54.1972C102.522 27.5081 80.8864 5.87222 54.1972 5.87222C27.5081 5.87222 5.87222 27.5081 5.87222 54.1972C5.87222 80.8864 27.5081 102.522 54.1972 102.522Z" stroke="#0043FA" stroke-opacity="0.43" stroke-width="4"/>
<path d="M71.0467 84.7776C70.4574 84.7759 69.8698 84.7098 69.2942 84.5804C58.3345 82.262 48.2378 76.826 40.1661 68.898C32.2665 60.9527 26.7878 50.8365 24.3927 39.7735C24.1103 38.3948 24.1796 36.9649 24.594 35.6214C25.0084 34.2779 25.7539 33.0661 26.7587 32.1026L33.7691 25.2023C34.1272 24.856 34.5526 24.5909 35.0177 24.4241C35.4827 24.2573 35.977 24.1927 36.4681 24.2345C36.9773 24.2888 37.4688 24.4566 37.9078 24.726C38.3468 24.9954 38.7228 25.3598 39.0094 25.7938L47.7723 39.0387C48.1009 39.5526 48.2596 40.1609 48.2249 40.7739C48.1902 41.3869 47.9639 41.9723 47.5795 42.444L43.1805 47.8209C44.9325 51.7862 47.4136 55.3701 50.4888 58.3774C53.5441 61.4938 57.1554 63.9822 61.1271 65.7078L66.5776 61.2809C67.0354 60.9109 67.5925 60.6921 68.1748 60.6537C68.7571 60.6153 69.337 60.759 69.8375 61.0658L83.0695 69.8121C83.5236 70.0894 83.9105 70.4681 84.2011 70.92C84.4917 71.3718 84.6786 71.8851 84.7477 72.4213C84.8168 72.9575 84.7664 73.5027 84.6002 74.0162C84.434 74.5296 84.1564 74.9979 83.7881 75.3861L76.953 82.3043C76.1766 83.0943 75.255 83.7196 74.2414 84.1441C73.2278 84.5686 72.1421 84.7839 71.0467 84.7776ZM36.1877 27.7832L29.1773 34.6835C28.612 35.2221 28.1936 35.902 27.9631 36.6562C27.7326 37.4104 27.6981 38.213 27.8629 38.9849C30.0899 49.366 35.2092 58.8654 42.6022 66.3351C50.1982 73.7937 59.6998 78.9068 70.0127 81.0855C70.7933 81.2524 71.6022 81.2186 72.3669 80.9871C73.1316 80.7556 73.8282 80.3337 74.3942 79.7592L81.2293 72.841L68.4529 64.3994L62.5993 69.1669C62.3752 69.3482 62.1111 69.4708 61.8301 69.5239C61.549 69.577 61.2595 69.5591 60.9869 69.4716C56.1264 67.6402 51.7217 64.7331 48.0878 60.9582C44.3291 57.3687 41.4115 52.9575 39.5527 48.0539C39.474 47.757 39.4714 47.4444 39.5451 47.1462C39.6187 46.848 39.7662 46.5742 39.9733 46.3512L44.7053 40.5621L36.1877 27.7832Z" fill="#0043FA" fill-opacity="0.8"/>
</svg>
