<svg width="40" height="40" viewBox="0 0 40 40" fill="none" xmlns="http://www.w3.org/2000/svg">
<path d="M38.9011 33.5989L29.7245 24.4216C28.3572 26.5481 26.5476 28.3567 24.4211 29.7241L33.5985 38.9014C35.0636 40.3662 37.4391 40.3662 38.9011 38.9014C40.3662 37.4391 40.3662 35.0636 38.9011 33.5989Z" fill="#0043FA"/>
<path d="M30 15C30 6.71646 23.2839 0 15.0001 0C6.71651 0 0 6.71646 0 15C0 23.2835 6.71651 29.9996 15.0001 29.9996C23.2839 29.9996 30 23.2835 30 15ZM15.0001 26.2495C8.79644 26.2495 3.75013 21.2037 3.75013 15.0001C3.75013 8.79645 8.79644 3.75018 15.0001 3.75018C21.2036 3.75018 26.2503 8.79645 26.2503 15.0001C26.2503 21.2037 21.2036 26.2495 15.0001 26.2495Z" fill="#0043FA"/>
<path d="M6.25 14.9999H8.7497C8.7497 11.5538 11.5538 8.74999 14.9999 8.74999V6.25006C10.1758 6.25006 6.25 10.1758 6.25 14.9999Z" fill="#0043FA"/>
</svg>
