<svg width="384" height="333" viewBox="0 0 384 333" fill="none" xmlns="http://www.w3.org/2000/svg">
<path d="M259.5 26.5L70 104C70 104 70 175.792 70 197.375C70 197.95 70.148 198.494 70.3832 199.024C71.2714 202.381 74.5719 204.938 78.7083 204.938L116.18 217.9C117.748 219.231 119.89 220.062 122.25 220.062C127.066 220.062 130.958 216.682 130.958 212.5C130.958 210.988 130.958 136.875 130.958 136.875L329.5 56L259.5 26.5Z" fill="#FFDA8E" fill-opacity="0.95"/>
<path d="M378.593 76.5365L378.62 76.4836L195.745 0.858562C195.745 0.858562 194.726 0.125 192 0.125C189.274 0.125 188.255 0.858562 188.255 0.858562L5.38044 76.4836L5.39785 76.5214C4.7099 76.7785 0.416687 78.8053 0.416687 83.3125V249.688C0.416687 252.69 2.47185 255.246 5.40656 256.464L5.38044 256.509L188.255 332.134L188.282 332.089C189.422 332.565 190.659 332.875 192 332.875C193.341 332.875 194.578 332.565 195.718 332.089L195.745 332.134L378.62 256.509L378.593 256.464C381.528 255.246 383.583 252.69 383.583 249.688V83.3125C383.583 81.6563 382.469 78.1397 378.593 76.5365ZM288.001 55.7623L113.625 126.396V200.705L87.5 191.63V113.562L259.368 43.9194L288.001 55.7623ZM192 16.0592L238.799 35.4192L76.1792 102.665L29.3806 83.3125L192 16.0592ZM183.292 313.333L17.8334 244.908V95.2915L70.0834 116.898V196.75C70.0834 199.934 72.3649 202.626 75.5696 203.745L75.5609 203.776L118.937 218.84C117.004 218.129 120.2 219.438 122.333 219.438C127.149 219.438 131.042 216.057 131.042 211.875V142.103L183.292 163.709V313.333ZM192 150.566L144.322 130.85L308.387 64.2021L354.619 83.3125L192 150.566ZM366.167 244.908L200.708 313.333V163.717L366.167 95.2915V244.908Z" fill="#04009A"/>
</svg>
