<svg width="51" height="50" viewBox="0 0 51 50" fill="none" xmlns="http://www.w3.org/2000/svg">
<path d="M48.5 25C48.5 37.38 38.2495 47.5 25.5 47.5C12.7505 47.5 2.5 37.38 2.5 25C2.5 12.62 12.7505 2.5 25.5 2.5C38.2495 2.5 48.5 12.62 48.5 25Z" fill="#0043FA" stroke="white" stroke-width="5"/>
<path d="M19.6039 30.82L24.5039 26.6C24.9572 26.2 25.3439 25.8533 25.6639 25.56C25.9839 25.2533 26.2439 24.9733 26.4439 24.72C26.6439 24.4667 26.7839 24.22 26.8639 23.98C26.9572 23.74 27.0039 23.48 27.0039 23.2C27.0039 22.6267 26.8439 22.1667 26.5239 21.82C26.2039 21.46 25.7306 21.28 25.1039 21.28C24.3839 21.28 23.8172 21.48 23.4039 21.88C23.0039 22.2667 22.8039 22.94 22.8039 23.9H19.8039C19.8039 22.3133 20.2506 21.06 21.1439 20.14C22.0506 19.22 23.3706 18.76 25.1039 18.76C25.9172 18.76 26.6239 18.8733 27.2239 19.1C27.8372 19.3133 28.3506 19.62 28.7639 20.02C29.1772 20.4067 29.4839 20.8733 29.6839 21.42C29.8972 21.9667 30.0039 22.56 30.0039 23.2C30.0039 23.68 29.9172 24.14 29.7439 24.58C29.5706 25.0067 29.3306 25.42 29.0239 25.82C28.7306 26.22 28.3839 26.6133 27.9839 27C27.5839 27.3733 27.1572 27.7467 26.7039 28.12L23.8239 30.52H30.2039V33H19.6039V30.82Z" fill="white"/>
</svg>
