<svg width="51" height="50" viewBox="0 0 51 50" fill="none" xmlns="http://www.w3.org/2000/svg">
<path d="M48.5 25C48.5 37.38 38.2495 47.5 25.5 47.5C12.7505 47.5 2.5 37.38 2.5 25C2.5 12.62 12.7505 2.5 25.5 2.5C38.2495 2.5 48.5 12.62 48.5 25Z" fill="#0043FA" stroke="white" stroke-width="5"/>
<path d="M25.3453 33.24C23.6386 33.24 22.3453 32.84 21.4653 32.04C20.5853 31.2267 20.1453 30.1133 20.1453 28.7H23.1453C23.1453 29.38 23.3186 29.8867 23.6653 30.22C24.0253 30.5533 24.5853 30.72 25.3453 30.72C26.0786 30.72 26.6253 30.56 26.9853 30.24C27.3586 29.9067 27.5453 29.44 27.5453 28.84C27.5453 27.5867 26.812 26.96 25.3453 26.96H24.0453V24.64H25.3453C25.9853 24.64 26.4786 24.5067 26.8253 24.24C27.172 23.9733 27.3453 23.56 27.3453 23C27.3453 22.4933 27.1786 22.08 26.8453 21.76C26.512 21.44 26.012 21.28 25.3453 21.28C24.6653 21.28 24.1586 21.44 23.8253 21.76C23.5053 22.0667 23.3453 22.5133 23.3453 23.1H20.3453C20.3453 21.7267 20.7586 20.66 21.5853 19.9C22.4253 19.14 23.6786 18.76 25.3453 18.76C26.1853 18.76 26.9186 18.86 27.5453 19.06C28.172 19.2467 28.692 19.5133 29.1053 19.86C29.5186 20.1933 29.8253 20.5933 30.0253 21.06C30.2386 21.5267 30.3453 22.0333 30.3453 22.58C30.3453 23.3533 30.1253 24.0133 29.6853 24.56C29.2586 25.0933 28.6853 25.4733 27.9653 25.7C28.792 25.9267 29.4253 26.32 29.8653 26.88C30.3186 27.44 30.5453 28.18 30.5453 29.1C30.5453 29.7 30.4253 30.2533 30.1853 30.76C29.9453 31.2667 29.5986 31.7067 29.1453 32.08C28.7053 32.44 28.1586 32.7267 27.5053 32.94C26.8653 33.14 26.1453 33.24 25.3453 33.24Z" fill="white"/>
</svg>
