<svg width="104" height="117" viewBox="0 0 104 117" fill="none" xmlns="http://www.w3.org/2000/svg">
<path d="M87.75 80.4375C86.888 80.4375 86.0614 80.8227 85.4519 81.5084C84.8424 82.1941 84.5 83.1241 84.5 84.0938V106.031C84.5 107.001 84.1576 107.931 83.5481 108.617C82.9386 109.302 82.112 109.688 81.25 109.688H22.75C21.888 109.688 21.0614 109.302 20.4519 108.617C19.8424 107.931 19.5 107.001 19.5 106.031V32.9062C19.5 31.9366 19.1576 31.0066 18.5481 30.3209C17.9386 29.6352 17.112 29.25 16.25 29.25C15.388 29.25 14.5614 29.6352 13.9519 30.3209C13.3424 31.0066 13 31.9366 13 32.9062V106.031C13 108.94 14.0272 111.73 15.8557 113.787C17.6842 115.844 20.1641 117 22.75 117H81.25C83.8359 117 86.3158 115.844 88.1443 113.787C89.9728 111.73 91 108.94 91 106.031V84.0938C91 83.1241 90.6576 82.1941 90.0481 81.5084C89.4386 80.8227 88.612 80.4375 87.75 80.4375Z" fill="#04009A" fill-opacity="0.9"/>
<path d="M81.25 0H22.75C20.1641 0 17.6842 1.15563 15.8557 3.21267C14.0272 5.26971 13 8.05966 13 10.9688V18.2812C13 19.2509 13.3424 20.1809 13.9519 20.8666C14.5614 21.5523 15.388 21.9375 16.25 21.9375C17.112 21.9375 17.9386 21.5523 18.5481 20.8666C19.1576 20.1809 19.5 19.2509 19.5 18.2812V10.9688C19.5 9.99905 19.8424 9.06907 20.4519 8.38339C21.0614 7.69771 21.888 7.3125 22.75 7.3125H81.25C82.112 7.3125 82.9386 7.69771 83.5481 8.38339C84.1576 9.06907 84.5 9.99905 84.5 10.9688V69.4688C84.5 70.4384 84.8424 71.3684 85.4519 72.0541C86.0614 72.7398 86.888 73.125 87.75 73.125C88.612 73.125 89.4386 72.7398 90.0481 72.0541C90.6576 71.3684 91 70.4384 91 69.4688V10.9688C91 8.05966 89.9728 5.26971 88.1443 3.21267C86.3158 1.15563 83.8359 0 81.25 0Z" fill="#04009A" fill-opacity="0.9"/>
<path d="M78 18.2812C78 17.3116 77.6576 16.3816 77.0481 15.6959C76.4386 15.0102 75.612 14.625 74.75 14.625H29.25C28.388 14.625 27.5614 15.0102 26.9519 15.6959C26.3424 16.3816 26 17.3116 26 18.2812V40.2188C26 41.1884 26.3424 42.1184 26.9519 42.8041C27.5614 43.4898 28.388 43.875 29.25 43.875H74.75C75.612 43.875 76.4386 43.4898 77.0481 42.8041C77.6576 42.1184 78 41.1884 78 40.2188V18.2812ZM71.5 36.5625H32.5V21.9375H71.5V36.5625Z" fill="#04009A" fill-opacity="0.9"/>
<path d="M29.25 58.5H35.75C36.612 58.5 37.4386 58.1148 38.0481 57.4291C38.6576 56.7434 39 55.8134 39 54.8438C39 53.8741 38.6576 52.9441 38.0481 52.2584C37.4386 51.5727 36.612 51.1875 35.75 51.1875H29.25C28.388 51.1875 27.5614 51.5727 26.9519 52.2584C26.3424 52.9441 26 53.8741 26 54.8438C26 55.8134 26.3424 56.7434 26.9519 57.4291C27.5614 58.1148 28.388 58.5 29.25 58.5Z" fill="#04009A" fill-opacity="0.9"/>
<path d="M55.25 51.1875H48.75C47.888 51.1875 47.0614 51.5727 46.4519 52.2584C45.8424 52.9441 45.5 53.8741 45.5 54.8438C45.5 55.8134 45.8424 56.7434 46.4519 57.4291C47.0614 58.1148 47.888 58.5 48.75 58.5H55.25C56.112 58.5 56.9386 58.1148 57.5481 57.4291C58.1576 56.7434 58.5 55.8134 58.5 54.8438C58.5 53.8741 58.1576 52.9441 57.5481 52.2584C56.9386 51.5727 56.112 51.1875 55.25 51.1875Z" fill="#04009A" fill-opacity="0.9"/>
<path d="M74.75 51.1875H68.25C67.388 51.1875 66.5614 51.5727 65.9519 52.2584C65.3424 52.9441 65 53.8741 65 54.8438C65 55.8134 65.3424 56.7434 65.9519 57.4291C66.5614 58.1148 67.388 58.5 68.25 58.5H74.75C75.612 58.5 76.4386 58.1148 77.0481 57.4291C77.6576 56.7434 78 55.8134 78 54.8438C78 53.8741 77.6576 52.9441 77.0481 52.2584C76.4386 51.5727 75.612 51.1875 74.75 51.1875Z" fill="#04009A" fill-opacity="0.9"/>
<path d="M29.25 73.125H35.75C36.612 73.125 37.4386 72.7398 38.0481 72.0541C38.6576 71.3684 39 70.4384 39 69.4688C39 68.4991 38.6576 67.5691 38.0481 66.8834C37.4386 66.1977 36.612 65.8125 35.75 65.8125H29.25C28.388 65.8125 27.5614 66.1977 26.9519 66.8834C26.3424 67.5691 26 68.4991 26 69.4688C26 70.4384 26.3424 71.3684 26.9519 72.0541C27.5614 72.7398 28.388 73.125 29.25 73.125Z" fill="#04009A" fill-opacity="0.9"/>
<path d="M55.25 65.8125H48.75C47.888 65.8125 47.0614 66.1977 46.4519 66.8834C45.8424 67.5691 45.5 68.4991 45.5 69.4688C45.5 70.4384 45.8424 71.3684 46.4519 72.0541C47.0614 72.7398 47.888 73.125 48.75 73.125H55.25C56.112 73.125 56.9386 72.7398 57.5481 72.0541C58.1576 71.3684 58.5 70.4384 58.5 69.4688C58.5 68.4991 58.1576 67.5691 57.5481 66.8834C56.9386 66.1977 56.112 65.8125 55.25 65.8125Z" fill="#04009A" fill-opacity="0.9"/>
<path d="M74.75 65.8125H68.25C67.388 65.8125 66.5614 66.1977 65.9519 66.8834C65.3424 67.5691 65 68.4991 65 69.4688C65 70.4384 65.3424 71.3684 65.9519 72.0541C66.5614 72.7398 67.388 73.125 68.25 73.125H74.75C75.612 73.125 76.4386 72.7398 77.0481 72.0541C77.6576 71.3684 78 70.4384 78 69.4688C78 68.4991 77.6576 67.5691 77.0481 66.8834C76.4386 66.1977 75.612 65.8125 74.75 65.8125Z" fill="#04009A" fill-opacity="0.9"/>
<path d="M29.25 87.75H35.75C36.612 87.75 37.4386 87.3648 38.0481 86.6791C38.6576 85.9934 39 85.0634 39 84.0938C39 83.1241 38.6576 82.1941 38.0481 81.5084C37.4386 80.8227 36.612 80.4375 35.75 80.4375H29.25C28.388 80.4375 27.5614 80.8227 26.9519 81.5084C26.3424 82.1941 26 83.1241 26 84.0938C26 85.0634 26.3424 85.9934 26.9519 86.6791C27.5614 87.3648 28.388 87.75 29.25 87.75Z" fill="#04009A" fill-opacity="0.9"/>
<path d="M55.25 80.4375H48.75C47.888 80.4375 47.0614 80.8227 46.4519 81.5084C45.8424 82.1941 45.5 83.1241 45.5 84.0938C45.5 85.0634 45.8424 85.9934 46.4519 86.6791C47.0614 87.3648 47.888 87.75 48.75 87.75H55.25C56.112 87.75 56.9386 87.3648 57.5481 86.6791C58.1576 85.9934 58.5 85.0634 58.5 84.0938C58.5 83.1241 58.1576 82.1941 57.5481 81.5084C56.9386 80.8227 56.112 80.4375 55.25 80.4375Z" fill="#04009A" fill-opacity="0.9"/>
<path d="M29.25 102.375H35.75C36.612 102.375 37.4386 101.99 38.0481 101.304C38.6576 100.618 39 99.6884 39 98.7188C39 97.7491 38.6576 96.8191 38.0481 96.1334C37.4386 95.4477 36.612 95.0625 35.75 95.0625H29.25C28.388 95.0625 27.5614 95.4477 26.9519 96.1334C26.3424 96.8191 26 97.7491 26 98.7188C26 99.6884 26.3424 100.618 26.9519 101.304C27.5614 101.99 28.388 102.375 29.25 102.375Z" fill="#04009A" fill-opacity="0.9"/>
<path d="M55.25 95.0625H48.75C47.888 95.0625 47.0614 95.4477 46.4519 96.1334C45.8424 96.8191 45.5 97.7491 45.5 98.7188C45.5 99.6884 45.8424 100.618 46.4519 101.304C47.0614 101.99 47.888 102.375 48.75 102.375H55.25C56.112 102.375 56.9386 101.99 57.5481 101.304C58.1576 100.618 58.5 99.6884 58.5 98.7188C58.5 97.7491 58.1576 96.8191 57.5481 96.1334C56.9386 95.4477 56.112 95.0625 55.25 95.0625Z" fill="#04009A" fill-opacity="0.9"/>
<path d="M74.75 80.4375H68.25C66.4551 80.4375 65 82.0745 65 84.0938V98.7188C65 100.738 66.4551 102.375 68.25 102.375H74.75C76.5449 102.375 78 100.738 78 98.7188V84.0938C78 82.0745 76.5449 80.4375 74.75 80.4375Z" fill="#77ACF1" fill-opacity="0.9"/>
</svg>
