<svg width="127" height="127" viewBox="0 0 127 127" fill="none" xmlns="http://www.w3.org/2000/svg">
<g clip-path="url(#clip0_10_1955)">
<path d="M123.507 37.7826C120.967 34.9251 117.475 33.0201 113.665 33.0201H64.77C63.1825 33.0201 61.595 34.2901 61.595 36.1951C61.595 38.1001 63.1825 39.3701 64.77 39.3701H113.665C115.57 39.3701 117.475 40.3226 118.745 41.5926C120.015 43.1801 120.65 45.0851 120.015 46.9901L117.157 62.8651H82.2325C80.645 62.8651 79.0575 64.1351 79.0575 66.0401C79.0575 67.9451 80.645 69.2151 82.2325 69.2151H116.205L113.347 84.4551C113.03 86.6776 110.807 88.2651 108.585 88.2651H47.625C45.4025 88.2651 43.4975 86.6776 42.8625 84.4551L30.48 15.5576C30.1625 13.9701 28.8925 13.0176 27.305 13.0176H2.8575C1.27 13.0176 -0.317505 14.2876 -0.317505 16.1926C-0.317505 18.0976 1.27 19.3676 2.8575 19.3676H24.765L36.83 86.0426C37.465 90.4876 40.64 93.6626 44.7675 94.9326C43.18 97.1551 41.91 100.013 41.91 103.188C41.91 111.125 48.26 117.475 56.1975 117.475C64.135 117.475 70.485 111.125 70.485 103.188C70.485 100.33 69.5325 97.4726 67.945 95.2501H87.3125C85.725 97.4726 84.7725 100.33 84.7725 103.188C84.7725 111.125 91.1225 117.475 99.06 117.475C106.997 117.475 113.347 111.125 113.347 103.188C113.347 100.013 112.395 97.1551 110.807 94.9326C114.935 93.9801 118.427 90.4876 119.38 86.0426L126.365 48.5776C127 44.7676 126.047 40.9576 123.507 37.7826ZM64.135 102.87C64.135 107.315 60.6425 110.808 56.1975 110.808C51.7525 110.808 48.26 107.315 48.26 102.87C48.26 98.4251 51.7525 94.9326 56.1975 94.9326C60.6425 94.9326 64.135 98.4251 64.135 102.87ZM99.3775 110.808C94.9325 110.808 91.44 107.315 91.44 102.87C91.44 98.4251 94.9325 94.9326 99.3775 94.9326C103.822 94.9326 107.315 98.4251 107.315 102.87C107.315 107.315 103.822 110.808 99.3775 110.808Z" fill="black" fill-opacity="0.9"/>
</g>
<defs>
<clipPath id="clip0_10_1955">
<rect width="127" height="127" fill="white"/>
</clipPath>
</defs>
</svg>
