<svg width="72" height="72" viewBox="0 0 72 72" fill="none" xmlns="http://www.w3.org/2000/svg">
<rect width="72" height="72" fill="white"/>
<path d="M36 63.2483C35.7212 63.2477 35.4464 63.1824 35.1972 63.0575L9.74879 50.3603C9.44896 50.2109 9.19677 49.9808 9.0206 49.6959C8.84443 49.4109 8.75126 49.0825 8.75159 48.7475V23.3495C8.75193 23.0151 8.84541 22.6875 9.02155 22.4032C9.19768 22.119 9.44951 21.8895 9.74879 21.7403L35.1972 9.03953C35.4466 8.91526 35.7214 8.85059 36 8.85059C36.2786 8.85059 36.5534 8.91526 36.8028 9.03953L62.2512 21.7403C62.5505 21.8895 62.8023 22.119 62.9784 22.4032C63.1546 22.6875 63.248 23.0151 63.2484 23.3495V48.7475C63.2487 49.0825 63.1556 49.4109 62.9794 49.6959C62.8032 49.9808 62.551 50.2109 62.2512 50.3603L36.8028 63.0575C36.5536 63.1824 36.2788 63.2477 36 63.2483ZM12.3516 47.6351L36 59.4359L59.6484 47.6351V24.4799L36 12.6611L12.3516 24.4799V47.6351Z" fill="#0044FF"/>
<path d="M36 37.8C35.7215 37.8005 35.4467 37.7364 35.1972 37.6128L9.75243 24.9624C9.32277 24.7499 8.99511 24.3755 8.84152 23.9215C8.68793 23.4675 8.72099 22.971 8.93343 22.5414C9.14586 22.1117 9.52028 21.7841 9.9743 21.6305C10.4283 21.4769 10.9248 21.5099 11.3544 21.7224L36 33.9624L60.6456 21.7224C60.8584 21.6172 61.0897 21.5549 61.3265 21.5392C61.5634 21.5234 61.8009 21.5544 62.0257 21.6305C62.2506 21.7065 62.4582 21.8261 62.6368 21.9824C62.8154 22.1387 62.9614 22.3286 63.0666 22.5414C63.1718 22.7541 63.2341 22.9855 63.2498 23.2223C63.2656 23.4591 63.2346 23.6967 63.1585 23.9215C63.0825 24.1463 62.9629 24.3539 62.8066 24.5325C62.6503 24.7111 62.4604 24.8572 62.2476 24.9624L36.8028 37.6128C36.5533 37.7364 36.2785 37.8005 36 37.8Z" fill="#0044FF"/>
<path d="M48.7224 31.4748C48.4452 31.4748 48.1717 31.4107 47.9232 31.2876L22.4748 18.6372C22.0452 18.4247 21.7175 18.0503 21.5639 17.5963C21.4103 17.1423 21.4434 16.6458 21.6558 16.2162C21.8683 15.7865 22.2427 15.4589 22.6967 15.3053C23.1507 15.1517 23.6472 15.1847 24.0768 15.3972L49.5252 28.08C49.8893 28.2604 50.1816 28.5587 50.3546 28.9264C50.5276 29.294 50.5712 29.7094 50.4781 30.1049C50.3851 30.5005 50.1609 30.8529 49.8422 31.1049C49.5234 31.3569 49.1288 31.4936 48.7224 31.4928V31.4748Z" fill="#0044FF"/>
<path d="M36 63.2484C35.5226 63.2484 35.0647 63.0587 34.7272 62.7211C34.3896 62.3836 34.2 61.9257 34.2 61.4484V36C34.2 35.5226 34.3896 35.0647 34.7272 34.7272C35.0647 34.3896 35.5226 34.2 36 34.2C36.4773 34.2 36.9352 34.3896 37.2727 34.7272C37.6103 35.0647 37.8 35.5226 37.8 36V61.4484C37.8 61.9257 37.6103 62.3836 37.2727 62.7211C36.9352 63.0587 36.4773 63.2484 36 63.2484Z" fill="#0044FF"/>
</svg>
