<svg width="72" height="72" viewBox="0 0 72 72" fill="none" xmlns="http://www.w3.org/2000/svg">
<path d="M41.1525 24.795L37.7775 26.2463C36.6412 26.73 35.3587 26.73 34.2337 26.2463L30.8587 24.795C29.205 24.0863 28.1362 22.455 28.1362 20.655V14.625C28.1362 10.9013 31.1625 7.875 34.8862 7.875H37.1362C40.86 7.875 43.8862 10.9013 43.8862 14.625V20.655C43.8862 22.455 42.8175 24.0863 41.1637 24.795H41.1525Z" fill="white"/>
<path d="M24.75 16.5712C24.4237 16.7625 24.03 16.875 23.625 16.875C22.3875 16.875 21.375 15.8625 21.375 14.625C21.375 13.3875 22.3875 12.375 23.625 12.375C24.0975 12.375 24.5362 12.5212 24.9075 12.78" fill="white"/>
<path d="M47.25 16.5712C47.5763 16.7625 47.97 16.875 48.375 16.875C49.6125 16.875 50.625 15.8625 50.625 14.625C50.625 13.3875 49.6125 12.375 48.375 12.375C47.9025 12.375 47.4638 12.5212 47.0925 12.78" fill="white"/>
<path d="M39.375 28.1251C39.375 29.9926 37.8675 31.5001 36 31.5001C34.1325 31.5001 32.625 29.9926 32.625 28.1251V25.5488L34.2225 26.2351C35.3588 26.7301 36.6413 26.7301 37.7775 26.2351L39.375 25.5488V28.1251Z" fill="white"/>
<path d="M18 41.1637C17.3138 41.4563 16.5487 41.625 15.75 41.625C12.645 41.625 10.125 39.105 10.125 36C10.125 32.895 12.645 30.375 15.75 30.375C17.595 30.375 19.2262 31.2638 20.25 32.6363C21.0037 31.6125 21.9375 30.735 22.995 30.0263C22.7138 29.9138 22.455 29.745 22.23 29.52C21.6788 28.98 21.4763 28.2262 21.5888 27.5175C20.4188 26.7075 19.0687 26.145 17.6175 25.875C17.2013 26.46 16.5262 26.8425 15.75 26.8425C14.9738 26.8425 14.2987 26.46 13.8825 25.875C12.4313 26.145 11.0813 26.7075 9.91125 27.5175C10.0238 28.2262 9.82125 28.98 9.27 29.52C8.73 30.0712 7.97625 30.2737 7.2675 30.1612C6.4575 31.3312 5.895 32.6813 5.625 34.1325C6.21 34.5487 6.5925 35.2238 6.5925 36C6.5925 36.7762 6.21 37.4513 5.625 37.8675C5.895 39.3187 6.4575 40.6687 7.2675 41.8387C7.97625 41.7262 8.73 41.9287 9.27 42.48C9.82125 43.02 10.0238 43.7738 9.91125 44.4825C11.0813 45.2925 12.4313 45.855 13.8825 46.125C14.2987 45.54 14.9738 45.1575 15.75 45.1575C16.5262 45.1575 17.2013 45.54 17.6175 46.125C19.0687 45.855 20.4188 45.2925 21.5888 44.4825C21.555 44.28 21.555 44.0775 21.5775 43.875H18V41.1637Z" fill="white"/>
<path d="M51.75 32.6363C52.7738 31.2638 54.405 30.375 56.25 30.375C59.355 30.375 61.875 32.895 61.875 36C61.875 39.105 59.355 41.625 56.25 41.625C55.4513 41.625 54.6863 41.4563 54 41.1637V43.875H50.4225C50.445 44.0775 50.445 44.28 50.4113 44.4825C51.5813 45.2925 52.9313 45.855 54.3825 46.125C54.7988 45.54 55.4738 45.1575 56.25 45.1575C57.0263 45.1575 57.7013 45.54 58.1175 46.125C59.5688 45.855 60.9188 45.2925 62.0888 44.4825C61.9763 43.7738 62.1788 43.02 62.73 42.48C63.27 41.9287 64.0238 41.7262 64.7325 41.8387C65.5425 40.6687 66.105 39.3187 66.375 37.8675C65.79 37.4513 65.4075 36.7762 65.4075 36C65.4075 35.2238 65.79 34.5487 66.375 34.1325C66.105 32.6813 65.5425 31.3312 64.7325 30.1612C64.0238 30.2737 63.27 30.0712 62.73 29.52C62.1788 28.98 61.9763 28.2262 62.0888 27.5175C60.9188 26.7075 59.5688 26.145 58.1175 25.875C57.7013 26.46 57.0263 26.8425 56.25 26.8425C55.4738 26.8425 54.7988 26.46 54.3825 25.875C52.9313 26.145 51.5813 26.7075 50.4113 27.5175C50.5238 28.2262 50.3213 28.98 49.77 29.52C49.545 29.745 49.2863 29.9138 49.005 30.0263C50.0625 30.735 50.9963 31.6125 51.75 32.6363Z" fill="white"/>
<path d="M21.5775 43.875C21.555 44.0775 21.555 44.28 21.5888 44.4825C20.4188 45.2925 19.0687 45.855 17.6175 46.125C17.2012 45.5512 16.5375 45.1687 15.7725 45.1575C15.7613 45.1912 15.75 45.225 15.75 45.2587C16.9425 45.7987 17.7638 46.9913 17.7638 48.375C17.7638 49.7587 16.9425 50.9513 15.75 51.4913C15.975 52.9875 16.3688 54.4275 16.8975 55.8C18.2025 55.6762 19.5187 56.2837 20.2162 57.4875C20.9025 58.6912 20.7788 60.1425 20.0138 61.2113C20.9475 62.37 22.005 63.4275 23.1638 64.3612C24.2325 63.5962 25.6837 63.4725 26.8875 64.1587C28.0912 64.8562 28.6987 66.1725 28.575 67.4775C29.9475 68.0063 31.3875 68.4 32.8837 68.625C33.4237 67.4325 34.6162 66.6112 36 66.6112C37.3838 66.6112 38.5763 67.4325 39.1163 68.625C40.6125 68.4 42.0525 68.0063 43.425 67.4775C43.3012 66.1725 43.9087 64.8562 45.1125 64.1587C46.3162 63.4725 47.7675 63.5962 48.8363 64.3612C49.995 63.4275 51.0525 62.37 51.9862 61.2113C51.2212 60.1425 51.0975 58.6912 51.7837 57.4875C52.4812 56.2837 53.7975 55.6762 55.1025 55.8C55.6312 54.4275 56.025 52.9875 56.25 51.4913C55.0575 50.9513 54.2362 49.7587 54.2362 48.375C54.2362 46.9913 55.0575 45.7987 56.25 45.2587C56.25 45.225 56.2388 45.1912 56.2275 45.1575C55.4625 45.1687 54.7988 45.5512 54.3825 46.125C52.9313 45.855 51.5813 45.2925 50.4113 44.4825C50.445 44.28 50.445 44.0775 50.4225 43.875H48.7238C49.23 45.2812 49.5 46.8 49.5 48.375C49.5 55.8337 43.4587 61.875 36 61.875C28.5413 61.875 22.5 55.8337 22.5 48.375C22.5 46.8 22.77 45.2812 23.2763 43.875H21.5775Z" fill="white"/>
<path d="M48.7238 43.875C49.23 45.2812 49.5 46.8 49.5 48.375C49.5 55.8337 43.4587 61.875 36 61.875C28.5412 61.875 22.5 55.8337 22.5 48.375C22.5 46.8 22.77 45.2812 23.2763 43.875" fill="#0043FA"/>
<path d="M39.375 28.125C39.375 29.9925 37.8675 31.5 36 31.5C34.1325 31.5 32.625 29.9925 32.625 28.125H29.25C23.04 28.125 18 33.165 18 39.375V43.875H54V39.375C54 33.165 48.96 28.125 42.75 28.125H39.375Z" fill="#0043FA"/>
<path d="M20.25 32.6363C18.8325 34.515 18 36.8438 18 39.375V41.1637C17.3137 41.4563 16.5487 41.625 15.75 41.625C12.645 41.625 10.125 39.105 10.125 36C10.125 32.895 12.645 30.375 15.75 30.375C17.595 30.375 19.2262 31.2638 20.25 32.6363Z" fill="#0043FA"/>
<path d="M54 41.1637V39.375C54 36.8438 53.1675 34.515 51.75 32.6363C52.7738 31.2638 54.405 30.375 56.25 30.375C59.355 30.375 61.875 32.895 61.875 36C61.875 39.105 59.355 41.625 56.25 41.625C55.4513 41.625 54.6862 41.4563 54 41.1637Z" fill="#0043FA"/>
<path d="M43.875 14.625C43.29 13.8937 42.7163 13.2862 42.165 12.8025C40.005 10.8675 36.7875 11.1262 34.6275 13.0725C32.0288 15.4125 28.1138 14.6362 28.1138 14.6362C28.1138 10.9125 31.14 7.88623 34.8638 7.88623H37.1138C40.8375 7.88623 43.8638 10.9125 43.8638 14.6362L43.875 14.625Z" fill="white"/>
<path d="M43.875 19.8V14.625C43.875 10.9012 40.8487 7.875 37.125 7.875H34.875C31.1512 7.875 28.125 10.9012 28.125 14.625V19.125H25.875C25.2562 19.125 24.75 18.6187 24.75 18V14.625C24.75 8.415 29.79 3.375 36 3.375C39.105 3.375 41.9175 4.635 43.9538 6.67125C45.99 8.7075 47.25 11.52 47.25 14.625V18.2025C47.25 18.7425 46.8675 19.2037 46.35 19.305L43.875 19.8Z" fill="#E7ECEF"/>
<path d="M4.9725 36.9563C4.6125 37.2151 4.44375 37.6426 4.5225 38.0813C4.82625 39.6901 5.43375 41.1751 6.345 42.4913C6.5925 42.8513 7.00875 43.0313 7.4475 42.9638C7.83 42.8963 8.2125 43.0201 8.4825 43.3013C8.74125 43.5601 8.865 43.9313 8.7975 44.3251C8.73 44.7526 8.91 45.1801 9.27 45.4276C10.5863 46.3388 12.0713 46.9463 13.68 47.2501C14.1075 47.3401 14.5463 47.1488 14.805 46.8001C14.9625 46.5751 15.1875 46.4626 15.435 46.3951C16.1663 46.8001 16.6388 47.5538 16.6388 48.3976C16.6388 49.2976 16.11 50.1188 15.2888 50.4901C14.8275 50.7038 14.5688 51.1876 14.6363 51.6826C14.8725 53.2126 15.2775 54.7426 15.8513 56.2276C16.0313 56.7001 16.4925 56.9926 17.01 56.9476C17.9325 56.8576 18.7988 57.2963 19.2488 58.0726C19.6988 58.8601 19.6425 59.8388 19.1138 60.5813C18.8213 60.9976 18.8325 61.5488 19.1588 61.9426C20.1488 63.1688 21.2625 64.2826 22.4775 65.2613C22.8713 65.5763 23.4225 65.5988 23.8388 65.2951C24.5813 64.7663 25.5713 64.7101 26.3475 65.1488C27.135 65.5988 27.5625 66.4651 27.4838 67.3876C27.4388 67.8938 27.7313 68.3663 28.2038 68.5463C29.6888 69.1201 31.2188 69.5251 32.7488 69.7613C33.255 69.8401 33.7275 69.5701 33.9413 69.1088C34.3125 68.2876 35.1338 67.7588 36.0338 67.7588C36.9338 67.7588 37.755 68.2876 38.1263 69.1088C38.3063 69.5138 38.7113 69.7726 39.15 69.7726C39.2063 69.7726 39.2625 69.7726 39.3188 69.7613C40.8488 69.5363 42.3788 69.1201 43.8638 68.5463C44.3363 68.3663 44.6288 67.8938 44.5838 67.3876C44.4938 66.4651 44.9325 65.5988 45.7088 65.1488C46.4963 64.6988 47.475 64.7551 48.2175 65.2838C48.6338 65.5763 49.185 65.5651 49.5788 65.2501C50.7938 64.2713 51.9188 63.1463 52.8975 61.9313C53.2125 61.5376 53.235 60.9863 52.9425 60.5701C52.4138 59.8276 52.3575 58.8376 52.7963 58.0613C53.2463 57.2738 54.1238 56.8351 55.035 56.9251C55.5413 56.9701 56.0138 56.6776 56.1938 56.2051C56.7675 54.7201 57.1725 53.1901 57.4088 51.6601C57.4875 51.1651 57.2175 50.6701 56.7563 50.4676C55.935 50.0963 55.4063 49.2751 55.4063 48.3751C55.4063 47.5313 55.8788 46.7776 56.61 46.3726C56.8575 46.4401 57.0825 46.5526 57.24 46.7776C57.4538 47.0813 57.7913 47.2501 58.1513 47.2501C58.2188 47.2501 58.2863 47.2501 58.3538 47.2276C59.9625 46.9238 61.4475 46.3163 62.7638 45.4051C63.1238 45.1576 63.3038 44.7301 63.2363 44.3026C63.1688 43.9088 63.2925 43.5376 63.5737 43.2676C63.8325 43.0088 64.2038 42.8851 64.5975 42.9526C65.025 43.0201 65.4525 42.8401 65.7 42.4801C66.6113 41.1638 67.2188 39.6788 67.5225 38.0701C67.6013 37.6426 67.4213 37.2038 67.0725 36.9451C66.7575 36.7201 66.5775 36.3713 66.5775 35.9888C66.5775 35.6063 66.7575 35.2576 67.0725 35.0326C67.4325 34.7738 67.6013 34.3463 67.5225 33.9076C67.2188 32.2988 66.6113 30.8138 65.7 29.4976C65.4525 29.1376 65.025 28.9576 64.5975 29.0251C64.215 29.0813 63.8325 28.9688 63.5625 28.6876C63.3038 28.4288 63.18 28.0576 63.2475 27.6638C63.315 27.2363 63.135 26.8088 62.775 26.5613C61.4588 25.6501 59.9738 25.0426 58.365 24.7388C57.9375 24.6601 57.4988 24.8401 57.24 25.1888C56.79 25.8188 55.7887 25.8188 55.3388 25.1888C55.0913 24.8288 54.6413 24.6488 54.2138 24.7388C52.605 25.0426 51.12 25.6501 49.8038 26.5613C49.4438 26.8088 49.2638 27.2363 49.3313 27.6638C49.3875 28.0463 49.275 28.4063 49.0163 28.6763C47.1825 27.5963 45.0563 26.9663 42.7725 26.9663H40.5225V26.2576L41.6138 25.7851C43.6613 24.9076 44.9888 22.9051 45.0225 20.6776L46.5975 20.3626C47.6437 20.1488 48.4088 19.2263 48.4088 18.1576V17.9551C50.265 17.9551 51.7838 16.4363 51.7838 14.5801C51.7838 12.7238 50.265 11.2051 48.4088 11.2051C48.2513 11.2051 48.0938 11.2163 47.9363 11.2388C46.4738 6.03008 41.6925 2.20508 36.0338 2.20508C30.375 2.20508 25.5938 6.04133 24.1313 11.2388C23.9738 11.2163 23.8163 11.2051 23.6588 11.2051C21.8025 11.2051 20.2838 12.7238 20.2838 14.5801C20.2838 16.4363 21.8025 17.9551 23.6588 17.9551C23.6588 19.1926 24.6713 20.2051 25.9088 20.2051H27.0338V20.6101C27.0338 22.8601 28.3725 24.8963 30.4425 25.7851L31.5338 26.2576V26.9663H29.2838C27.0113 26.9663 24.8738 27.5963 23.04 28.6763C22.7813 28.4176 22.6688 28.0463 22.725 27.6638C22.7925 27.2363 22.6125 26.8088 22.2525 26.5613C20.9363 25.6501 19.4513 25.0426 17.8425 24.7388C17.415 24.6601 16.9763 24.8401 16.7175 25.1888C16.2675 25.8188 15.2663 25.8188 14.8163 25.1888C14.5575 24.8288 14.1188 24.6488 13.6913 24.7388C12.0825 25.0426 10.5975 25.6501 9.28125 26.5613C8.92125 26.8088 8.74125 27.2363 8.80875 27.6638C8.87625 28.0576 8.7525 28.4288 8.47125 28.6988C8.2125 28.9576 7.84125 29.0813 7.4475 29.0138C7.02 28.9463 6.5925 29.1263 6.345 29.4863C5.43375 30.8026 4.82625 32.2876 4.5225 33.8963C4.44375 34.3238 4.62375 34.7626 4.9725 35.0213C5.2875 35.2463 5.4675 35.5951 5.4675 35.9776C5.4675 36.3601 5.2875 36.7088 4.9725 36.9338V36.9563ZM48.375 13.5001C48.9938 13.5001 49.5 14.0063 49.5 14.6251C49.5 15.2438 48.9938 15.7501 48.375 15.7501V14.6251C48.375 14.2538 48.3525 13.8826 48.3188 13.5113C48.3413 13.5113 48.3525 13.5113 48.375 13.5113V13.5001ZM23.625 14.6251V15.7501C23.0063 15.7501 22.5 15.2438 22.5 14.6251C22.5 14.0063 23.0063 13.5001 23.625 13.5001C23.6475 13.5001 23.6588 13.5001 23.6813 13.5001C23.6475 13.8713 23.625 14.2426 23.625 14.6138V14.6251ZM54.315 54.6863C52.8638 54.8326 51.5475 55.6538 50.805 56.9363C50.0738 58.2188 50.0175 59.7713 50.625 61.0988C50.0288 61.7738 49.3988 62.4151 48.7125 63.0113C47.385 62.4151 45.8325 62.4713 44.55 63.2026C43.2788 63.9451 42.4575 65.2613 42.3113 66.7013C41.445 66.9938 40.5788 67.2301 39.7013 67.3988C38.8575 66.2288 37.485 65.4976 36.0113 65.4976C34.5375 65.4976 33.165 66.2176 32.3213 67.3988C31.4438 67.2301 30.5663 66.9938 29.7113 66.7013C29.565 65.2501 28.7438 63.9338 27.4613 63.1913C26.1788 62.4601 24.6263 62.4038 23.2988 63.0113C22.6238 62.4151 21.9825 61.7851 21.3863 61.0988C21.9825 59.7713 21.9375 58.2188 21.195 56.9363C20.4525 55.6651 19.1363 54.8438 17.6963 54.6976C17.4038 53.8313 17.1675 52.9651 16.9988 52.0876C18.1688 51.2438 18.9 49.8713 18.9 48.3976C18.9 47.9363 18.8213 47.4751 18.6863 47.0476C19.7213 46.7776 20.7 46.3613 21.6113 45.8101C21.4538 46.6538 21.375 47.5201 21.375 48.3976C21.375 56.4638 27.9338 63.0226 36 63.0226C44.0663 63.0226 50.625 56.4638 50.625 48.3976C50.625 47.5201 50.5463 46.6651 50.3888 45.8101C51.3 46.3613 52.2788 46.7663 53.3138 47.0476C53.1788 47.4751 53.1 47.9363 53.1 48.3976C53.1 49.8713 53.82 51.2438 55.0013 52.0876C54.8325 52.9651 54.5963 53.8426 54.3038 54.6976L54.315 54.6863ZM16.875 39.3751V40.3426C16.5038 40.4326 16.1325 40.5001 15.75 40.5001C13.2638 40.5001 11.25 38.4863 11.25 36.0001C11.25 33.5138 13.2638 31.5001 15.75 31.5001C16.92 31.5001 17.9888 31.9613 18.8213 32.7488C17.595 34.6726 16.875 36.9338 16.875 39.3751ZM23.625 48.3751C23.625 47.2163 23.7938 46.0913 24.1088 45.0001H47.9025C48.2175 46.0913 48.3862 47.2163 48.3862 48.3751C48.3862 55.2038 42.84 60.7501 36.0113 60.7501C29.1825 60.7501 23.6363 55.2038 23.6363 48.3751H23.625ZM53.1788 32.7488C54 31.9613 55.08 31.5001 56.25 31.5001C58.7363 31.5001 60.75 33.5138 60.75 36.0001C60.75 38.4863 58.7363 40.5001 56.25 40.5001C55.8675 40.5001 55.4963 40.4326 55.125 40.3426V39.3751C55.125 36.9338 54.405 34.6613 53.1788 32.7488ZM51.5588 28.1138C52.3125 27.6638 53.1225 27.3263 53.9888 27.1126C55.2263 28.2038 57.2625 28.2038 58.5 27.1126C59.3663 27.3263 60.1763 27.6638 60.93 28.1138C60.9863 28.9463 61.335 29.7338 61.92 30.3076C62.505 30.9038 63.2925 31.2526 64.125 31.3088C64.575 32.0626 64.9125 32.8726 65.1263 33.7388C64.5863 34.3576 64.2713 35.1563 64.2713 36.0001C64.2713 36.8438 64.5863 37.6426 65.1263 38.2613C64.9125 39.1276 64.575 39.9376 64.125 40.6913C63.2925 40.7476 62.505 41.0963 61.9313 41.6813C61.335 42.2663 60.9863 43.0538 60.93 43.8863C60.1763 44.3363 59.3663 44.6738 58.5 44.8876C57.5663 44.0663 56.1938 43.8638 55.035 44.2801C55.08 44.1563 55.1138 44.0213 55.1138 43.8751V42.6488C55.485 42.7051 55.8563 42.7501 56.2388 42.7501C59.9625 42.7501 62.9888 39.7238 62.9888 36.0001C62.9888 32.2763 59.9625 29.2501 56.2388 29.2501C54.5625 29.2501 52.9988 29.8576 51.7725 30.9488C51.4688 30.6226 51.1425 30.3076 50.805 30.0151C51.2325 29.4751 51.5025 28.8113 51.5475 28.1138H51.5588ZM27 14.6251V18.0001H25.875V14.6251C25.875 9.04508 30.42 4.50008 36 4.50008C41.58 4.50008 46.125 9.04508 46.125 14.6251V18.2026L45 18.4276V14.6251C45 10.2826 41.4675 6.75008 37.125 6.75008H34.875C30.5325 6.75008 27 10.2826 27 14.6251ZM41.3663 10.9688C38.9925 9.87758 36.0338 10.2826 33.885 12.2288C32.4675 13.5001 30.5213 13.6576 29.3513 13.6238C29.8238 11.0026 32.1188 9.01133 34.875 9.01133H37.125C38.8238 9.01133 40.3313 9.78758 41.3663 10.9801V10.9688ZM31.2975 23.7601C30.06 23.2313 29.25 22.0051 29.25 20.6551V15.8626C29.385 15.8626 29.5088 15.8738 29.6663 15.8738C31.2413 15.8738 33.5588 15.5476 35.3925 13.8938C37.1925 12.2738 39.7913 12.1613 41.4225 13.6351C41.8613 14.0288 42.3113 14.5126 42.75 15.0413V18.8776L35.775 20.2726L36.2138 22.4776L42.705 21.1838C42.525 22.3201 41.7825 23.2988 40.7025 23.7601L37.3275 25.2113C36.4838 25.5713 35.5163 25.5713 34.6725 25.2113L31.2975 23.7601ZM38.25 27.2588V28.1251C38.25 29.3626 37.2375 30.3751 36 30.3751C34.7625 30.3751 33.75 29.3626 33.75 28.1251V27.2588H33.7838C34.4813 27.5738 35.2463 27.7313 36 27.7313C36.7538 27.7313 37.5075 27.5851 38.2163 27.2813H38.25V27.2588ZM29.25 29.2388H31.6463C32.1413 31.1738 33.9075 32.6138 36 32.6138C38.0925 32.6138 39.8588 31.1738 40.3538 29.2388H42.75C48.33 29.2388 52.875 33.7838 52.875 39.3638V42.7388H19.125V39.3638C19.125 33.7838 23.67 29.2388 29.25 29.2388ZM6.8625 33.7276C7.07625 32.8613 7.41375 32.0513 7.86375 31.2976C8.69625 31.2413 9.48375 30.8926 10.0575 30.3076C10.6538 29.7226 11.0025 28.9351 11.0588 28.1026C11.8125 27.6526 12.6225 27.3151 13.4888 27.1013C14.7263 28.1926 16.7625 28.1926 18 27.1013C18.8663 27.3151 19.6763 27.6526 20.43 28.1026C20.475 28.8001 20.7338 29.4638 21.1725 30.0038C20.835 30.2963 20.5088 30.6113 20.205 30.9376C18.99 29.8463 17.415 29.2388 15.7388 29.2388C12.015 29.2388 8.98875 32.2651 8.98875 35.9888C8.98875 39.7126 12.015 42.7388 15.7388 42.7388C16.1213 42.7388 16.4925 42.7051 16.8638 42.6376V43.8638C16.8638 44.0101 16.8975 44.1451 16.9425 44.2688C15.7838 43.8638 14.4113 44.0663 13.4775 44.8763C12.6113 44.6626 11.8013 44.3251 11.0475 43.8751C10.9913 43.0426 10.6425 42.2551 10.0575 41.6813C9.4725 41.0851 8.685 40.7363 7.8525 40.6801C7.4025 39.9263 7.065 39.1163 6.85125 38.2501C7.39125 37.6313 7.70625 36.8326 7.70625 35.9888C7.70625 35.1451 7.39125 34.3463 6.85125 33.7276H6.8625Z" fill="black"/>
</svg>
