<svg width="72" height="72" viewBox="0 0 72 72" fill="none" xmlns="http://www.w3.org/2000/svg">
<path d="M35.6193 64.2181C30.6319 63.7449 25.4502 61.7331 21.2464 58.634L19.2246 57.1436L21.045 55.07C22.0463 53.9298 22.9186 52.9964 22.9835 52.9964C23.0483 52.9964 24.0775 53.6675 25.2702 54.4878C29.5688 57.4439 33.1265 58.5568 38.3461 58.5789C42.5568 58.5789 44.8806 58.0549 48.7723 56.1489C50.9924 55.0617 52.0385 54.2723 54.4015 51.8999C56.7547 49.5378 57.5555 48.4701 58.6335 46.2598C60.4778 42.4772 61.0511 40.0426 61.0511 35.9941C61.0511 31.9729 60.4844 29.5501 58.6514 25.7346C57.5717 23.4877 56.8363 22.5095 54.4218 20.1104C51.2489 16.9578 48.7331 15.4124 44.8294 14.2172C32.8229 10.5421 19.8171 17.8614 16.3919 30.2218C15.3886 33.8423 15.3464 33.7482 17.975 33.7482C19.2101 33.7482 20.2206 33.8459 20.2206 33.9591C20.2206 34.1956 12.7388 47.2364 12.6628 47.1299C12.3203 46.6516 5.14282 34.0403 5.14282 33.9174C5.14282 33.8248 6.21074 33.7477 7.51594 33.7477H9.88901L10.2552 31.582C12.199 20.0852 20.4666 11.1145 31.673 8.34301C35.2422 7.46049 41.3836 7.39107 44.7074 8.19387C61.181 12.1847 70.6652 28.9983 65.3999 44.8774C63.1842 51.5595 58.3826 57.302 51.9737 60.9349C49.5597 62.3029 44.8843 63.8185 42.3562 64.0515C41.2094 64.1595 39.7657 64.288 39.1482 64.3446C38.5307 64.4012 36.9426 64.3436 35.6193 64.2181ZM35.6193 50.9361C35.6193 49.2133 35.609 49.1927 34.4281 48.8034C32.5718 48.1909 29.9989 45.4117 29.3901 43.3617C28.5064 40.3856 28.4081 40.4854 32.2333 40.4854C35.5728 40.4854 35.5857 40.4879 36.0059 41.3673C36.6231 42.6587 38.5224 43.0825 39.7157 42.1959C40.2743 41.7793 40.6277 41.1848 40.6909 40.5517C40.8066 39.3956 40.3463 39.0891 36.7421 37.918C35.507 37.5169 33.9912 36.9322 33.3737 36.6184C31.8757 35.8578 29.9921 33.866 29.3793 32.3951C28.7593 30.9068 28.7386 28.2973 29.333 26.8686C29.9847 25.3088 32.0871 23.3375 33.7946 22.6854L35.2662 22.1233L35.3613 20.3166L35.4565 18.5099L38.2635 18.4174L41.0706 18.3248V20.2472V22.1696L42.434 22.7754C43.1839 23.1097 44.2694 23.7803 44.8463 24.2679C46.2108 25.4209 47.6827 27.9059 47.2548 28.3343C47.0799 28.5092 45.6148 29.0631 43.9986 29.565C41.2416 30.4223 41.0414 30.4439 40.7568 29.9096C40.0659 28.6187 36.8929 28.2644 35.9711 29.3752C35.402 30.0608 36.4958 30.7715 39.7368 31.8222C44.2889 33.2977 46.6135 35.1291 47.4413 37.8918C48.6531 41.9367 46.9148 46.089 43.1109 48.2356L41.3914 49.2061V50.9398V52.6739H38.5041H35.6169L35.6193 50.9361Z" fill="#0043FA"/>
</svg>
