<svg width="72" height="72" viewBox="0 0 72 72" fill="none" xmlns="http://www.w3.org/2000/svg">
<path d="M42.75 56.5201C42.6709 56.5255 42.5915 56.5255 42.5124 56.5201C42.2391 56.4836 41.9778 56.3847 41.7487 56.2311C41.5196 56.0776 41.3289 55.8735 41.1912 55.6345L36.9684 48.3193L32.76 47.6677C30.6324 47.3643 28.6607 46.3787 27.1411 44.8591C25.6214 43.3394 24.6358 41.3677 24.3324 39.2401L23.7096 35.0281L16.3944 30.8089C16.1555 30.6712 15.9513 30.4805 15.7978 30.2514C15.6442 30.0223 15.5454 29.761 15.5088 29.4877C15.4726 29.2139 15.4999 28.9354 15.5885 28.6739C15.6772 28.4123 15.8248 28.1746 16.02 27.9793L22.3848 21.6001C22.7222 21.2636 23.1792 21.0746 23.6556 21.0745H35.64L44.5536 12.1573C45.7679 10.9391 47.2372 10.0053 48.8557 9.42329C50.4742 8.84125 52.2017 8.6254 53.9136 8.79129L60.9192 9.45009C61.3366 9.48933 61.7271 9.67299 62.0235 9.96939C62.3199 10.2658 62.5036 10.6564 62.5428 11.0737L63.2016 18.0793C63.3678 19.7913 63.152 21.5188 62.57 23.1374C61.9879 24.7559 61.054 26.2252 59.8356 27.4393L50.9112 36.3601V48.3445C50.9111 48.821 50.7221 49.278 50.3856 49.6153L44.0208 55.9801C43.855 56.1493 43.6573 56.2841 43.4393 56.3768C43.2212 56.4695 42.987 56.5182 42.75 56.5201ZM20.2248 28.8649L26.28 32.3497C26.5153 32.4852 26.7168 32.6722 26.8695 32.8966C27.0223 33.1211 27.1223 33.3771 27.162 33.6457L27.9108 38.7181C28.104 40.0818 28.7351 41.3459 29.7091 42.3199C30.683 43.2938 31.9471 43.9249 33.3108 44.1181L38.3832 44.8669C38.6518 44.9067 38.9079 45.0066 39.1323 45.1594C39.3567 45.3121 39.5437 45.5137 39.6792 45.7489L43.164 51.7861L47.34 47.6065V35.6149C47.3411 35.1379 47.5314 34.6808 47.8692 34.3441L57.312 24.9013C58.1548 24.0602 58.8007 23.043 59.2034 21.9225C59.6062 20.8021 59.7557 19.6064 59.6412 18.4213L59.1192 12.8989L53.568 12.3877C52.383 12.2738 51.1874 12.4235 50.0671 12.8262C48.9467 13.2289 47.9294 13.8746 47.088 14.7169L37.656 24.1597C37.3193 24.4975 36.8622 24.6878 36.3852 24.6889H24.4044L20.2248 28.8649Z" fill="#0043FA"/>
<path d="M10.5516 63.2485C10.1954 63.2484 9.84726 63.1427 9.55122 62.9446C9.25517 62.7466 9.02452 62.4652 8.88846 62.1361C8.75241 61.8069 8.71706 61.4448 8.78689 61.0956C8.85673 60.7463 9.02861 60.4256 9.28077 60.1741L21.9996 47.4553C22.1656 47.2834 22.3642 47.1462 22.5838 47.0519C22.8034 46.9576 23.0396 46.9079 23.2786 46.9058C23.5177 46.9038 23.7547 46.9493 23.9759 47.0398C24.1971 47.1303 24.3981 47.264 24.5671 47.433C24.7361 47.602 24.8697 47.8029 24.9602 48.0242C25.0508 48.2454 25.0963 48.4824 25.0942 48.7214C25.0921 48.9604 25.0425 49.1966 24.9482 49.4162C24.8538 49.6358 24.7167 49.8344 24.5448 50.0005L11.826 62.7193C11.6588 62.887 11.4602 63.02 11.2415 63.1109C11.0228 63.2017 10.7884 63.2484 10.5516 63.2485Z" fill="#0043FA"/>
<path d="M10.4077 48.6469C10.0519 48.6468 9.70418 48.5413 9.40835 48.3437C9.11253 48.1462 8.88187 47.8654 8.74552 47.5368C8.60916 47.2083 8.57322 46.8467 8.64223 46.4977C8.71124 46.1487 8.8821 45.828 9.13325 45.5761L16.7257 37.9801C17.0632 37.6421 17.5211 37.452 17.9988 37.4517C18.4764 37.4513 18.9347 37.6407 19.2727 37.9783C19.6106 38.3158 19.8007 38.7737 19.8011 39.2514C19.8014 39.729 19.612 40.1873 19.2745 40.5253L11.6785 48.1213C11.3411 48.4578 10.8841 48.6468 10.4077 48.6469Z" fill="#0043FA"/>
<path d="M25.0056 63.2483C24.6494 63.2482 24.3012 63.1425 24.0052 62.9445C23.7091 62.7465 23.4785 62.4651 23.3424 62.1359C23.2064 61.8067 23.171 61.4446 23.2409 61.0954C23.3107 60.7461 23.4826 60.4254 23.7348 60.1739L31.32 52.5815C31.486 52.4096 31.6846 52.2725 31.9042 52.1781C32.1238 52.0838 32.36 52.0341 32.599 52.0321C32.838 52.03 33.0751 52.0755 33.2963 52.166C33.5175 52.2565 33.7185 52.3902 33.8875 52.5592C34.0565 52.7282 34.1901 52.9292 34.2806 53.1504C34.3711 53.3716 34.4167 53.6086 34.4146 53.8476C34.4125 54.0866 34.3629 54.3228 34.2685 54.5424C34.1742 54.762 34.0371 54.9607 33.8652 55.1267L26.28 62.7191C26.1128 62.8868 25.9142 63.0199 25.6955 63.1107C25.4768 63.2015 25.2423 63.2483 25.0056 63.2483Z" fill="#0043FA"/>
<path d="M50.76 26.28C49.7632 26.28 48.7887 25.9844 47.9599 25.4306C47.1311 24.8768 46.4851 24.0896 46.1036 23.1687C45.7222 22.2477 45.6223 21.2344 45.8168 20.2567C46.0113 19.279 46.4913 18.381 47.1962 17.6761C47.901 16.9713 48.7991 16.4913 49.7767 16.2968C50.7544 16.1023 51.7678 16.2021 52.6887 16.5836C53.6096 16.9651 54.3968 17.6111 54.9506 18.4399C55.5044 19.2687 55.8 20.2431 55.8 21.24C55.8 22.5766 55.269 23.8586 54.3238 24.8038C53.3786 25.749 52.0967 26.28 50.76 26.28ZM50.76 19.8C50.4752 19.8 50.1968 19.8844 49.96 20.0426C49.7231 20.2009 49.5386 20.4258 49.4296 20.6889C49.3206 20.952 49.2921 21.2416 49.3476 21.5209C49.4032 21.8002 49.5404 22.0568 49.7417 22.2582C49.9431 22.4596 50.1997 22.5967 50.479 22.6523C50.7584 22.7078 51.0479 22.6793 51.311 22.5703C51.5742 22.4614 51.7991 22.2768 51.9573 22.04C52.1155 21.8032 52.2 21.5248 52.2 21.24C52.2 20.858 52.0483 20.4918 51.7782 20.2217C51.5082 19.9517 51.1419 19.8 50.76 19.8Z" fill="#0043FA"/>
</svg>
