<svg width="72" height="72" viewBox="0 0 72 72" fill="none" xmlns="http://www.w3.org/2000/svg">
<path d="M70.51 38.4065C70.4802 37.4587 70.1219 36.5508 69.4964 35.8381C68.8709 35.1254 68.0171 34.6523 67.0812 34.4997C62.4076 33.6605 57.9208 29.512 55.6653 27.118C55.2809 26.7079 54.8175 26.3797 54.303 26.1531C53.7886 25.9265 53.2336 25.8063 52.6715 25.7997L52.6643 25.8011L52.6572 25.7997C52.0852 25.7958 51.5185 25.9106 50.993 26.1368C50.4675 26.3629 49.9946 26.6956 49.6041 27.1137C47.3442 29.512 42.8541 33.6605 38.186 34.4997C37.2493 34.6573 36.3961 35.1347 35.7718 35.8505C35.1474 36.5664 34.7904 37.4765 34.7616 38.426C34.6989 42.0178 34.9952 45.6069 35.646 49.1398V49.1412C37.6888 59.9142 43.0947 67.1358 51.2811 70.0259C51.723 70.1816 52.1882 70.2608 52.6567 70.26C53.1162 70.2608 53.5722 70.18 54.0035 70.0215C62.1862 67.0563 67.5948 59.8361 69.6459 49.1415V49.1396C70.3071 45.6018 70.5967 42.0045 70.51 38.4065ZM51.1389 47.3373H38.4135C37.9554 44.4063 37.7496 41.4413 37.7982 38.475C37.8129 38.2288 37.9134 37.9956 38.0822 37.8157C38.251 37.6359 38.4774 37.5209 38.7222 37.4907C43.6012 36.6132 48.0627 33.0225 51.1389 29.899V47.3373ZM54.1755 66.6832V50.3739H66.2759C64.3313 58.5378 60.2718 64.0134 54.1755 66.6832Z" fill="#0043FA"/>
<path d="M37.6485 31.5102C40.3459 31.0251 43.7624 28.7825 47.066 25.3615C47.0688 25.2133 47.0786 25.0669 47.0786 24.9178C47.0806 20.0592 45.5321 15.3268 42.6585 11.4092C39.785 7.49148 35.7362 4.593 31.1014 3.13547C26.4667 1.67795 21.4877 1.73743 16.8891 3.30526C12.2904 4.8731 8.31207 7.86748 5.53291 11.8527C2.75375 15.8379 1.3188 20.6059 1.43686 25.4631C1.55492 30.3202 3.21983 35.0129 6.18933 38.8584C9.15882 42.7038 13.278 45.5014 17.9473 46.844C22.6167 48.1865 27.5927 48.004 32.1512 46.3231C31.8304 43.6866 31.688 41.0316 31.725 38.3759C31.7665 36.7232 32.3793 35.1359 33.4593 33.8841C34.5393 32.6323 36.0196 31.7934 37.6485 31.5102ZM22.7666 22.3334H25.6967C26.338 22.3304 26.9735 22.454 27.5668 22.6973C28.1601 22.9405 28.6996 23.2986 29.1541 23.751C29.6086 24.2033 29.9693 24.741 30.2154 25.3331C30.4615 25.9253 30.5882 26.5602 30.5882 27.2015C30.5882 27.8427 30.4615 28.4777 30.2154 29.0698C29.9693 29.662 29.6086 30.1997 29.1541 30.652C28.6996 31.1044 28.1601 31.4625 27.5668 31.7057C26.9735 31.949 26.338 32.0726 25.6967 32.0695H25.6243V34.5895C25.6292 34.792 25.5936 34.9935 25.5195 35.182C25.4454 35.3705 25.3343 35.5423 25.1929 35.6873C25.0514 35.8322 24.8823 35.9474 24.6957 36.0261C24.509 36.1047 24.3085 36.1453 24.106 36.1453C23.9034 36.1453 23.7029 36.1047 23.5162 36.0261C23.3296 35.9474 23.1605 35.8322 23.019 35.6873C22.8776 35.5423 22.7665 35.3705 22.6924 35.182C22.6183 34.9935 22.5827 34.792 22.5877 34.5895V32.0695H19.1654C18.7691 32.0599 18.3923 31.8957 18.1155 31.612C17.8386 31.3283 17.6836 30.9476 17.6836 30.5512C17.6836 30.1548 17.8386 29.7742 18.1155 29.4905C18.3923 29.2068 18.7691 29.0426 19.1654 29.0329H25.6967C25.9384 29.0348 26.1781 28.9889 26.402 28.8977C26.6258 28.8065 26.8294 28.6719 27.001 28.5016C27.1726 28.3314 27.3088 28.1288 27.4018 27.9057C27.4947 27.6826 27.5426 27.4432 27.5426 27.2015C27.5426 26.9598 27.4947 26.7204 27.4018 26.4973C27.3088 26.2742 27.1726 26.0716 27.001 25.9014C26.8294 25.7311 26.6258 25.5965 26.402 25.5053C26.1781 25.4141 25.9384 25.3682 25.6967 25.37H22.7666C21.4253 25.3717 20.137 24.846 19.1797 23.9065C18.2224 22.9669 17.6727 21.6887 17.6492 20.3476C17.6257 19.0064 18.1303 17.7098 19.0542 16.7373C19.978 15.7647 21.2471 15.1943 22.5877 15.149V12.6105C22.5973 12.2142 22.7615 11.8374 23.0452 11.5606C23.3289 11.2837 23.7096 11.1287 24.106 11.1287C24.5023 11.1287 24.883 11.2837 25.1667 11.5606C25.4504 11.8374 25.6146 12.2142 25.6243 12.6105V15.1305H29.3519C29.5544 15.1256 29.7559 15.1612 29.9444 15.2353C30.1329 15.3094 30.3047 15.4204 30.4497 15.5619C30.5946 15.7034 30.7098 15.8724 30.7885 16.0591C30.8671 16.2458 30.9077 16.4463 30.9077 16.6488C30.9077 16.8514 30.8671 17.0519 30.7885 17.2386C30.7098 17.4252 30.5946 17.5943 30.4497 17.7357C30.3047 17.8772 30.1329 17.9883 29.9444 18.0623C29.7559 18.1364 29.5544 18.1721 29.3519 18.1671H22.7666C22.2168 18.1712 21.6909 18.3924 21.3036 18.7826C20.9163 19.1728 20.6989 19.7003 20.6989 20.2501C20.6989 20.7999 20.9163 21.3274 21.3036 21.7176C21.6909 22.1078 22.2168 22.3294 22.7666 22.3334Z" fill="#0043FA"/>
</svg>
