<svg width="72" height="72" viewBox="0 0 72 72" fill="none" xmlns="http://www.w3.org/2000/svg">
<path d="M63.4501 36L8.55005 27.5625C6.2438 27.5625 4.3313 25.65 4.3313 23.3438C4.3313 21.0375 6.2438 19.125 8.55005 19.125H54.9563C59.625 19.125 63.3938 22.8937 63.3938 27.5625V36H63.4501Z" fill="#E8E8E8"/>
<path d="M63.45 36.675C63.3938 36.675 63.3937 36.675 63.3375 36.675L8.55 28.2375C5.85 28.1813 3.65625 25.9875 3.65625 23.3438C3.65625 20.6438 5.85 18.3938 8.60625 18.3938H55.0125C60.075 18.3938 64.125 22.5 64.125 27.5063V35.9438C64.125 36.1688 64.0125 36.3375 63.9 36.4501C63.7313 36.6188 63.5625 36.675 63.45 36.675ZM8.55 19.8C6.6375 19.8 5.0625 21.375 5.0625 23.2875C5.0625 25.2 6.6375 26.775 8.55 26.775C8.60625 26.775 8.60625 26.775 8.6625 26.775L62.7188 35.1V27.5625C62.7188 23.2875 59.2312 19.8 54.9562 19.8H8.55Z" fill="#0043FA"/>
<path d="M63.45 31.7812H59.0062V40.2188H63.45C65.7562 40.2188 67.6687 38.3063 67.6687 36C67.6125 33.6938 65.7562 31.7812 63.45 31.7812Z" fill="#E8E8E8"/>
<path d="M63.4501 40.9499H59.0063C58.6126 40.9499 58.3313 40.6124 58.3313 40.2749V31.8374C58.3313 31.4436 58.6688 31.1624 59.0063 31.1624H63.4501C66.1501 31.1624 68.4 33.3561 68.4 36.1124C68.4 38.8686 66.1501 40.9499 63.4501 40.9499ZM59.6813 39.4874H63.4501C65.3626 39.4874 66.9376 37.9124 66.9376 35.9999C66.9376 34.0874 65.3626 32.5124 63.4501 32.5124H59.6813V39.4874Z" fill="#0043FA"/>
<path d="M33.8625 31.725C42.0018 31.725 48.6 25.1268 48.6 16.9875C48.6 8.8482 42.0018 2.25 33.8625 2.25C25.7232 2.25 19.125 8.8482 19.125 16.9875C19.125 25.1268 25.7232 31.725 33.8625 31.725Z" fill="white"/>
<path d="M33.8625 31.725C42.0018 31.725 48.6 25.1268 48.6 16.9875C48.6 8.8482 42.0018 2.25 33.8625 2.25C25.7232 2.25 19.125 8.8482 19.125 16.9875C19.125 25.1268 25.7232 31.725 33.8625 31.725Z" fill="white"/>
<path d="M33.8625 32.5125C25.3125 32.5125 18.3938 25.5937 18.3938 17.0437C18.3938 8.4937 25.3688 1.57495 33.8625 1.57495C42.3563 1.57495 49.3313 8.4937 49.3313 17.0437C49.3313 25.5937 42.4125 32.5125 33.8625 32.5125ZM33.8625 2.92495C26.1 2.92495 19.8 9.22495 19.8 16.9875C19.8 24.75 26.1 31.05 33.8625 31.05C41.625 31.05 47.925 24.75 47.925 16.9875C47.925 9.22495 41.625 2.92495 33.8625 2.92495Z" fill="#0043FA"/>
<g opacity="0.3">
<path d="M33.8626 5.5686C27.5626 5.5686 22.4438 10.6874 22.4438 16.9874C22.4438 23.2874 27.5626 28.4624 33.8626 28.4624C40.1626 28.4624 45.2813 23.3436 45.2813 17.0436C45.2813 10.7436 40.2188 5.5686 33.8626 5.5686Z" fill="#F6F7F6"/>
</g>
<path d="M33.8625 29.1375C27.1688 29.1375 21.7125 23.6813 21.7125 16.9875C21.7125 10.2938 27.1688 4.8938 33.8625 4.8938C40.5563 4.8938 46.0125 10.35 46.0125 17.0438C46.0125 23.7375 40.6125 29.1375 33.8625 29.1375ZM33.8625 6.30005C27.9563 6.30005 23.1188 11.1375 23.1188 17.0438C23.1188 22.95 27.9563 27.7875 33.8625 27.7875C39.7688 27.7875 44.6063 22.95 44.6063 17.0438C44.6063 11.1375 39.825 6.30005 33.8625 6.30005Z" fill="#0043FA"/>
<path d="M36.2251 17.0999C35.8313 16.8749 35.4376 16.6499 34.9313 16.5374C34.5376 16.4249 34.1438 16.3124 33.6938 16.1999C33.3001 16.0874 32.9626 15.9749 32.6251 15.8624C32.3438 15.7499 32.1188 15.5812 31.8938 15.4124C31.7251 15.2437 31.5563 15.0749 31.4438 14.7937C31.3876 14.6249 31.2751 14.2874 31.2751 13.7812C31.2751 13.4999 31.3313 13.2187 31.4438 12.9374C31.5563 12.6562 31.6688 12.4312 31.8938 12.2624C32.0626 12.0374 32.3438 11.8687 32.6813 11.7562C33.0188 11.6437 33.4126 11.5312 33.8626 11.5312C34.3126 11.5312 34.7063 11.5874 34.9876 11.7562C35.2688 11.8687 35.5501 12.0937 35.7188 12.2624C35.8876 12.4874 36.0563 12.7687 36.1688 13.0499C36.2813 13.3874 36.6188 13.5562 37.0126 13.4437C37.3501 13.3312 37.5188 12.9937 37.4063 12.5999C37.2376 12.1499 37.0126 11.6999 36.7313 11.3624C36.3938 10.9687 36.0001 10.6874 35.5501 10.4624C35.2688 10.3499 34.8751 10.2374 34.5376 10.1812V9.73115C34.5376 9.39365 34.2563 9.05615 33.8626 9.05615C33.5251 9.05615 33.1876 9.3374 33.1876 9.73115V10.1812C32.7938 10.2374 32.4563 10.2937 32.1751 10.4624C31.6688 10.6874 31.2751 10.9124 30.9938 11.2499C30.6563 11.5874 30.4313 11.9812 30.2626 12.3749C30.0938 12.7687 30.0376 13.2187 30.0376 13.6687C30.0376 14.2874 30.1501 14.8499 30.3188 15.2437C30.4876 15.6937 30.7688 16.0312 31.1063 16.3124C31.4438 16.5937 31.7813 16.8187 32.2313 16.9874C32.6251 17.1562 33.0188 17.2687 33.4688 17.3812C33.8626 17.4937 34.2563 17.6062 34.6501 17.7187C34.9876 17.8312 35.3251 17.9999 35.6063 18.1687C35.8876 18.3374 36.1126 18.5624 36.2813 18.8437C36.4501 19.1249 36.5626 19.5187 36.5626 19.9687C36.5626 20.3062 36.5063 20.6437 36.3938 20.9249C36.2813 21.2062 36.1688 21.4874 35.9438 21.7124C35.7751 21.9374 35.4938 22.1062 35.2126 22.2187C34.9313 22.3312 34.5376 22.3874 34.0876 22.3874C33.6938 22.3874 33.3563 22.3312 33.0751 22.2187C32.7376 22.1062 32.5126 21.9374 32.2313 21.7124C32.0063 21.4874 31.7813 21.2062 31.6126 20.8124C31.4438 20.4749 31.1063 20.3062 30.7688 20.4749C30.4313 20.6437 30.2626 20.9812 30.4313 21.3187C30.6563 21.8812 30.9938 22.3312 31.3876 22.6687C31.7813 23.0062 32.2313 23.2874 32.6813 23.4562C32.8501 23.5124 33.0751 23.5687 33.3001 23.6249V24.1312C33.3001 24.4687 33.5813 24.8062 33.9751 24.8062C34.3126 24.8062 34.6501 24.5249 34.6501 24.1312V23.6812C35.0438 23.6249 35.4376 23.5687 35.7751 23.3999C36.2813 23.1749 36.6751 22.8937 37.0126 22.5562C37.3501 22.2187 37.5751 21.7687 37.7438 21.3187C37.9126 20.8687 37.9688 20.4187 37.9688 19.9687C37.9688 19.2374 37.8001 18.6187 37.5188 18.1687C37.0126 17.7749 36.6751 17.3812 36.2251 17.0999Z" fill="#0043FA"/>
<path opacity="0.2" d="M20.1937 22.5C22.3875 27.9562 27.675 31.7812 33.9187 31.7812C40.1625 31.7812 45.3937 27.9562 47.5875 22.5H20.1937Z" fill="#0043FA"/>
<path d="M55.0125 27.5625H12.825H8.6062C6.29995 27.5625 4.38745 25.65 4.38745 23.3438V36V61.3125C4.38745 65.9813 8.1562 69.75 12.825 69.75H55.0125C59.6812 69.75 63.45 65.9813 63.45 61.3125V36C63.45 31.3312 59.625 27.5625 55.0125 27.5625Z" fill="#0043FA"/>
<path opacity="0.2" d="M11.1375 61.3125V36V27.5625H8.6062C6.29995 27.5625 4.38745 25.65 4.38745 23.3438V36V61.3125C4.38745 65.9813 8.1562 69.75 12.825 69.75H19.575C14.9062 69.75 11.1375 65.9813 11.1375 61.3125Z" fill="#0043FA"/>
<path d="M55.0125 70.4249H12.825C7.76252 70.4249 3.71252 66.3187 3.71252 61.3125V23.3437C3.71252 22.95 4.05002 22.6687 4.38752 22.6687C4.72502 22.6687 5.06252 22.95 5.06252 23.3437C5.06252 25.2562 6.63752 26.8312 8.55002 26.8312H54.9563C60.0188 26.8312 64.0688 30.9375 64.0688 35.9437V61.2562C64.125 66.375 60.0188 70.4249 55.0125 70.4249ZM5.06252 26.775V61.3125C5.06252 65.5874 8.55002 69.075 12.825 69.075H55.0125C59.2875 69.075 62.775 65.5874 62.775 61.3125V36C62.775 31.725 59.2875 28.2375 55.0125 28.2375H8.55002C7.20002 28.2375 5.96252 27.675 5.06252 26.775Z" fill="#0043FA"/>
<path d="M63.45 40.2188H59.0062H55.2375C50.7375 40.2188 46.8562 43.5938 46.575 48.0938C46.2937 52.3687 49.2187 56.025 53.2125 56.8687H63.5062C65.8125 56.8687 67.725 54.9562 67.725 52.65V40.2188V36C67.6125 38.3062 65.7562 40.2188 63.45 40.2188Z" fill="white"/>
<path d="M63.45 40.2188H59.0062H55.2375C50.7375 40.2188 46.8562 43.5938 46.575 48.0938C46.4625 49.95 46.9125 51.6938 47.8125 53.1C49.3312 55.5188 52.0875 56.8687 54.9562 56.8687H63.45C65.7562 56.8687 67.6687 54.9562 67.6687 52.65V40.2188V36C67.6125 38.3062 65.7562 40.2188 63.45 40.2188Z" fill="#E8E8E8"/>
<path d="M63.45 57.5999H54.9563C51.75 57.5999 48.7688 56.0249 47.1938 53.4936C46.1813 51.8624 45.7313 50.0061 45.8438 48.0936C46.125 43.3124 50.2875 39.5436 55.2375 39.5436H63.45C65.3625 39.5436 66.9375 37.9686 66.9375 36.0561C66.9375 35.6624 67.275 35.3811 67.6125 35.3811C67.95 35.3811 68.2875 35.7186 68.2875 36.0561V52.7624C68.3438 55.4061 66.15 57.5999 63.45 57.5999ZM55.1813 40.9499C50.9625 40.9499 47.475 44.0999 47.1938 48.2061C47.0813 49.8374 47.475 51.4124 48.3188 52.8186C49.6688 54.9561 52.1438 56.2499 54.9 56.2499H63.3938C65.3063 56.2499 66.8813 54.6749 66.8813 52.7624V39.4311C65.9813 40.3311 64.7438 40.8936 63.3938 40.8936H55.1813V40.9499Z" fill="#0043FA"/>
<path d="M54.9563 52.875C57.2863 52.875 59.175 50.9862 59.175 48.6562C59.175 46.3263 57.2863 44.4375 54.9563 44.4375C52.6263 44.4375 50.7375 46.3263 50.7375 48.6562C50.7375 50.9862 52.6263 52.875 54.9563 52.875Z" fill="white"/>
<path d="M54.9563 52.875C57.2863 52.875 59.175 50.9862 59.175 48.6562C59.175 46.3263 57.2863 44.4375 54.9563 44.4375C52.6263 44.4375 50.7375 46.3263 50.7375 48.6562C50.7375 50.9862 52.6263 52.875 54.9563 52.875Z" fill="white"/>
<path d="M54.9562 53.5499C52.2562 53.5499 50.0062 51.3562 50.0062 48.5999C50.0062 45.8437 52.2 43.6499 54.9562 43.6499C57.7125 43.6499 59.9062 45.8437 59.9062 48.5999C59.9062 51.3562 57.6562 53.5499 54.9562 53.5499ZM54.9562 45.1124C53.0437 45.1124 51.4687 46.6874 51.4687 48.5999C51.4687 50.5124 53.0437 52.0874 54.9562 52.0874C56.8687 52.0874 58.4437 50.5124 58.4437 48.5999C58.4437 46.6874 56.8687 45.1124 54.9562 45.1124Z" fill="#0043FA"/>
</svg>
